<svg width="245" height="223" viewBox="0 0 245 223" fill="none" xmlns="http://www.w3.org/2000/svg">
<path d="M101 42.2216C101 37.9962 107.662 38.38 110.041 38.6518C110.525 38.7071 110.873 39.121 110.873 39.6083V64.7571C110.873 65.3094 111.321 65.7571 111.873 65.7571L113 65.7571C113.552 65.7571 114 66.2048 114 66.7571V89.5C114 90.0523 113.552 90.5 113 90.5H102C101.448 90.5 101 90.0636 101 89.5113C101 83.0448 101 46.9026 101 42.2216Z" fill="#FFFEFF"/>
<path d="M119.25 41.5C119.25 40.9477 119.697 40.5042 120.248 40.5509C122.07 40.7057 125.75 41.3311 125.75 43.8571C125.75 46.7524 125.75 61.2998 125.75 65.2481C125.75 65.8004 126.198 66.2381 126.75 66.2381H128C128.552 66.2381 129 66.6858 129 67.2381V86.5C129 87.0523 128.552 87.5 128 87.5H117C116.448 87.5 116 87.0523 116 86.5V67.2381C116 66.6858 116.448 66.2381 117 66.2381H118.25C118.802 66.2381 119.25 65.7904 119.25 65.2381V41.5Z" fill="#FFFEFF"/>
<path d="M135.038 45.4774C135.038 44.96 135.431 44.5305 135.948 44.5131C137.746 44.4527 141.657 44.5319 142.538 46.2865C143.521 48.2431 143.248 61.002 143.146 64.7385C143.13 65.3038 143.584 65.7651 144.15 65.7651H145C145.552 65.7651 146 66.2128 146 66.7651V89.5C146 90.0523 145.552 90.5 145 90.5H132C131.448 90.5 131 90.0523 131 89.5V66.6299C131 66.1333 131.364 65.712 131.856 65.6403L134.183 65.301C134.674 65.2293 135.038 64.808 135.038 64.3114V45.4774Z" fill="#FFFEFF"/>
<path d="M152.038 47.9334C152.038 44.6789 159.394 44.4712 162.054 44.5026C162.586 44.5088 163 44.9454 163 45.4776V89.5C163 90.0523 162.552 90.5 162 90.5H149C148.448 90.5 148 90.0523 148 89.5V67.6627C148 67.1104 148.448 66.6627 149 66.6627H151.038C151.591 66.6627 152.038 66.2162 152.038 65.6639C152.038 62.281 152.038 51.2804 152.038 47.9334Z" fill="#FFFEFF"/>
<path d="M41.5039 118.039V130.227C41.5039 132.742 41.0977 134.633 40.2852 135.898C39.4727 137.164 38.2148 137.797 36.5117 137.797C36.1523 137.797 35.8008 137.758 35.457 137.68C35.1133 137.602 34.8086 137.484 34.543 137.328C34.2773 137.172 34.0586 136.969 33.8867 136.719C33.7148 136.484 33.6289 136.211 33.6289 135.898C33.6133 135.602 33.707 135.32 33.9102 135.055C34.0977 134.789 34.3945 134.633 34.8008 134.586C35.0039 134.57 35.1992 134.594 35.3867 134.656C35.5898 134.719 35.7617 134.805 35.9023 134.914C36.043 135.039 36.1523 135.172 36.2305 135.312C36.3242 135.469 36.3711 135.617 36.3711 135.758C36.3711 136.008 36.418 136.203 36.5117 136.344C36.6055 136.484 36.8086 136.555 37.1211 136.555C37.7617 136.555 38.2148 136.18 38.4805 135.43C38.7617 134.68 38.9023 133.445 38.9023 131.727V118.039C38.9023 117.555 38.8789 117.18 38.832 116.914C38.7852 116.633 38.6836 116.422 38.5273 116.281C38.3867 116.141 38.168 116.055 37.8711 116.023C37.5742 115.977 37.1758 115.953 36.6758 115.953V114.805C37.0195 114.836 37.5117 114.859 38.1523 114.875C38.793 114.875 39.4648 114.875 40.168 114.875C40.8711 114.875 41.543 114.875 42.1836 114.875C42.8242 114.859 43.332 114.844 43.707 114.828V115.953C43.1914 115.953 42.7852 115.977 42.4883 116.023C42.207 116.055 41.9883 116.141 41.832 116.281C41.6914 116.422 41.5977 116.633 41.5508 116.914C41.5195 117.18 41.5039 117.555 41.5039 118.039Z" fill="white"/>
<path d="M60.8335 126.102L59.7319 129.359C59.5913 129.734 59.4976 130.055 59.4507 130.32C59.4038 130.586 59.4351 130.805 59.5444 130.977C59.6538 131.133 59.8413 131.25 60.1069 131.328C60.3882 131.406 60.7866 131.445 61.3022 131.445V132.547C60.8647 132.531 60.3804 132.523 59.8491 132.523C59.3335 132.523 58.8022 132.523 58.2554 132.523C57.7241 132.523 57.2007 132.523 56.6851 132.523C56.1694 132.523 55.6929 132.531 55.2554 132.547V131.398C55.6929 131.398 56.0444 131.367 56.3101 131.305C56.5913 131.227 56.8179 131.102 56.9897 130.93C57.1772 130.758 57.3335 130.531 57.4585 130.25C57.5991 129.969 57.7476 129.602 57.9038 129.148L63.1069 114.195H64.4194L69.4819 129.195C69.6382 129.664 69.7866 130.039 69.9272 130.32C70.0835 130.602 70.2632 130.82 70.4663 130.977C70.6694 131.133 70.9038 131.25 71.1694 131.328C71.4507 131.391 71.7944 131.445 72.2007 131.492V132.547C71.7632 132.531 71.2554 132.523 70.6772 132.523C70.0991 132.523 69.5054 132.523 68.896 132.523C68.2866 132.523 67.6929 132.523 67.1147 132.523C66.5366 132.523 66.0288 132.531 65.5913 132.547V131.445C66.1069 131.445 66.4976 131.422 66.7632 131.375C67.0444 131.328 67.2319 131.234 67.3257 131.094C67.4194 130.953 67.4272 130.742 67.3491 130.461C67.2866 130.18 67.1772 129.797 67.021 129.312L65.9429 126.102H60.8335ZM61.2788 124.789H65.521L63.4351 118.555L61.2788 124.789Z" fill="white"/>
<path d="M99.8188 115.836L100.077 119.797H98.7407C98.522 118.344 98.0298 117.305 97.2642 116.68C96.4985 116.055 95.436 115.742 94.0767 115.742C93.1235 115.742 92.2329 115.93 91.4048 116.305C90.5923 116.664 89.8813 117.18 89.272 117.852C88.6626 118.508 88.186 119.312 87.8423 120.266C87.4985 121.203 87.3267 122.25 87.3267 123.406C87.3267 124.672 87.5142 125.812 87.8892 126.828C88.2642 127.844 88.772 128.711 89.4126 129.43C90.0688 130.148 90.8267 130.703 91.686 131.094C92.561 131.484 93.4829 131.68 94.4517 131.68C95.6548 131.68 96.6079 131.297 97.311 130.531C98.0142 129.766 98.4829 128.742 98.7173 127.461H100.147L99.4907 131.586C99.2095 131.773 98.8423 131.953 98.3892 132.125C97.9517 132.281 97.4829 132.414 96.9829 132.523C96.4829 132.648 95.9751 132.742 95.4595 132.805C94.9438 132.883 94.4751 132.922 94.0532 132.922C92.647 132.922 91.3579 132.695 90.186 132.242C89.0298 131.789 88.0298 131.148 87.186 130.32C86.3579 129.492 85.7095 128.5 85.2407 127.344C84.7876 126.172 84.561 124.883 84.561 123.477C84.561 122.18 84.8267 120.984 85.3579 119.891C85.8892 118.781 86.5923 117.828 87.4673 117.031C88.3423 116.234 89.3423 115.617 90.4673 115.18C91.6079 114.727 92.7798 114.5 93.9829 114.5C95.0142 114.5 96.022 114.633 97.0063 114.898C98.0063 115.164 98.9438 115.477 99.8188 115.836Z" fill="white"/>
<path d="M124.098 132.664C124.441 133.117 124.84 133.5 125.293 133.812C125.746 134.125 126.262 134.367 126.84 134.539C127.434 134.711 128.105 134.82 128.855 134.867C129.605 134.914 130.457 134.891 131.41 134.797V135.828C130.348 136.047 129.309 136.148 128.293 136.133C127.277 136.133 126.316 136.016 125.41 135.781C124.52 135.547 123.691 135.188 122.926 134.703C122.176 134.219 121.543 133.594 121.027 132.828C119.918 132.75 118.879 132.453 117.91 131.938C116.941 131.422 116.098 130.758 115.379 129.945C114.66 129.117 114.09 128.18 113.668 127.133C113.246 126.07 113.035 124.961 113.035 123.805C113.035 122.664 113.246 121.539 113.668 120.43C114.105 119.305 114.715 118.305 115.496 117.43C116.277 116.555 117.215 115.852 118.309 115.32C119.402 114.773 120.621 114.5 121.965 114.5C123.184 114.5 124.332 114.75 125.41 115.25C126.488 115.75 127.426 116.422 128.223 117.266C129.02 118.094 129.645 119.062 130.098 120.172C130.566 121.266 130.801 122.414 130.801 123.617C130.801 124.617 130.637 125.609 130.309 126.594C129.996 127.562 129.543 128.461 128.949 129.289C128.371 130.102 127.668 130.812 126.84 131.422C126.012 132.016 125.098 132.43 124.098 132.664ZM127.895 124.32C127.895 123.711 127.832 123.078 127.707 122.422C127.598 121.75 127.426 121.102 127.191 120.477C126.973 119.836 126.691 119.234 126.348 118.672C126.004 118.094 125.598 117.594 125.129 117.172C124.676 116.734 124.16 116.391 123.582 116.141C123.004 115.875 122.363 115.742 121.66 115.742C120.816 115.742 120.043 115.922 119.34 116.281C118.637 116.641 118.027 117.141 117.512 117.781C117.012 118.422 116.621 119.195 116.34 120.102C116.059 121.008 115.918 122.008 115.918 123.102C115.918 124.008 116.051 124.969 116.316 125.984C116.582 126.984 116.973 127.906 117.488 128.75C118.02 129.594 118.676 130.297 119.457 130.859C120.238 131.406 121.145 131.68 122.176 131.68C123.082 131.68 123.887 131.5 124.59 131.141C125.293 130.781 125.887 130.281 126.371 129.641C126.871 128.984 127.246 128.211 127.496 127.32C127.762 126.414 127.895 125.414 127.895 124.32Z" fill="white"/>
<path d="M160.4 114.781V115.953C159.947 115.953 159.587 115.969 159.322 116C159.072 116.031 158.884 116.117 158.759 116.258C158.634 116.383 158.556 116.578 158.525 116.844C158.509 117.109 158.501 117.484 158.501 117.969V126.828C158.501 127.703 158.361 128.516 158.08 129.266C157.798 130 157.384 130.641 156.837 131.188C156.291 131.719 155.611 132.141 154.798 132.453C153.986 132.766 153.048 132.922 151.986 132.922C150.97 132.922 150.056 132.789 149.244 132.523C148.431 132.273 147.736 131.883 147.158 131.352C146.595 130.82 146.158 130.156 145.845 129.359C145.533 128.547 145.369 127.602 145.353 126.523V118.062C145.353 117.594 145.33 117.219 145.283 116.938C145.236 116.656 145.134 116.445 144.978 116.305C144.837 116.164 144.619 116.07 144.322 116.023C144.025 115.977 143.626 115.953 143.126 115.953V114.805C143.47 114.836 143.962 114.859 144.603 114.875C145.244 114.891 145.916 114.898 146.619 114.898C147.322 114.898 147.994 114.891 148.634 114.875C149.291 114.859 149.806 114.836 150.181 114.805V115.953C149.681 115.953 149.283 115.977 148.986 116.023C148.689 116.07 148.462 116.164 148.306 116.305C148.15 116.445 148.048 116.656 148.001 116.938C147.955 117.219 147.931 117.594 147.931 118.062V125.891C147.931 127.859 148.306 129.281 149.056 130.156C149.806 131.016 150.994 131.445 152.619 131.445C153.212 131.445 153.759 131.336 154.259 131.117C154.759 130.898 155.189 130.594 155.548 130.203C155.908 129.797 156.189 129.305 156.392 128.727C156.595 128.148 156.697 127.5 156.697 126.781V118.062C156.697 117.578 156.681 117.203 156.65 116.938C156.634 116.656 156.556 116.453 156.416 116.328C156.291 116.188 156.087 116.102 155.806 116.07C155.541 116.023 155.158 115.992 154.658 115.977V114.805C154.986 114.836 155.416 114.859 155.947 114.875C156.478 114.875 157.025 114.875 157.587 114.875C158.166 114.875 158.705 114.867 159.205 114.852C159.72 114.836 160.119 114.812 160.4 114.781Z" fill="white"/>
<path d="M173.866 129.219V118.016C173.866 117.531 173.842 117.156 173.795 116.891C173.764 116.609 173.67 116.406 173.514 116.281C173.358 116.141 173.131 116.055 172.834 116.023C172.538 115.977 172.131 115.953 171.616 115.953V114.805C171.85 114.82 172.147 114.836 172.506 114.852C172.881 114.852 173.288 114.859 173.725 114.875C174.178 114.875 174.639 114.875 175.108 114.875C175.592 114.875 176.053 114.875 176.491 114.875C176.928 114.859 177.334 114.852 177.709 114.852C178.1 114.852 178.413 114.844 178.647 114.828V115.953C178.131 115.953 177.725 115.977 177.428 116.023C177.147 116.055 176.928 116.141 176.772 116.281C176.631 116.406 176.538 116.609 176.491 116.891C176.459 117.156 176.444 117.531 176.444 118.016V129.219C176.444 129.703 176.467 130.094 176.514 130.391C176.561 130.672 176.663 130.891 176.819 131.047C176.975 131.203 177.194 131.312 177.475 131.375C177.772 131.422 178.163 131.445 178.647 131.445V132.57C178.288 132.555 177.788 132.539 177.147 132.523C176.506 132.523 175.834 132.523 175.131 132.523C174.444 132.523 173.78 132.531 173.139 132.547C172.499 132.562 171.991 132.578 171.616 132.594V131.445C172.1 131.445 172.491 131.422 172.788 131.375C173.084 131.312 173.311 131.203 173.467 131.047C173.639 130.891 173.749 130.672 173.795 130.391C173.842 130.094 173.866 129.703 173.866 129.219Z" fill="white"/>
<path d="M207.559 118.109V132.781H206.082L194.809 118.836V129.312C194.809 129.812 194.832 130.211 194.879 130.508C194.926 130.789 195.027 131 195.184 131.141C195.34 131.281 195.566 131.367 195.863 131.398C196.16 131.43 196.559 131.445 197.059 131.445V132.547C196.621 132.531 196.105 132.523 195.512 132.523C194.934 132.523 194.34 132.523 193.73 132.523C193.121 132.523 192.52 132.523 191.926 132.523C191.348 132.539 190.84 132.555 190.402 132.57V131.445C190.949 131.445 191.387 131.43 191.715 131.398C192.059 131.352 192.324 131.258 192.512 131.117C192.699 130.961 192.824 130.734 192.887 130.438C192.949 130.141 192.98 129.734 192.98 129.219V118.109C192.98 117.672 192.934 117.32 192.84 117.055C192.746 116.773 192.582 116.555 192.348 116.398C192.113 116.227 191.801 116.109 191.41 116.047C191.035 115.984 190.559 115.953 189.98 115.953V114.828C190.23 114.859 190.559 114.883 190.965 114.898C191.387 114.898 191.809 114.898 192.23 114.898C192.652 114.898 193.051 114.891 193.426 114.875C193.801 114.859 194.09 114.844 194.293 114.828L205.684 128.633V117.969C205.684 117.531 205.66 117.18 205.613 116.914C205.566 116.648 205.465 116.445 205.309 116.305C205.152 116.164 204.918 116.07 204.605 116.023C204.309 115.977 203.902 115.953 203.387 115.953V114.828C203.746 114.844 204.215 114.859 204.793 114.875C205.387 114.875 205.996 114.875 206.621 114.875C207.262 114.875 207.871 114.875 208.449 114.875C209.027 114.859 209.488 114.844 209.832 114.828V115.953C209.285 115.953 208.863 115.977 208.566 116.023C208.27 116.055 208.043 116.141 207.887 116.281C207.73 116.422 207.637 116.641 207.605 116.938C207.574 117.219 207.559 117.609 207.559 118.109Z" fill="white"/>
<path d="M25.3548 179.5L31.5348 165.5H35.4348L41.6348 179.5H37.5148L32.6748 167.44H34.2348L29.3948 179.5H25.3548ZM28.7348 176.78L29.7548 173.86H36.5948L37.6148 176.78H28.7348ZM48.0198 179.68C46.8198 179.68 45.7464 179.44 44.7998 178.96C43.8664 178.48 43.1331 177.82 42.5998 176.98C42.0664 176.127 41.7998 175.153 41.7998 174.06C41.7998 172.967 42.0664 172 42.5998 171.16C43.1331 170.32 43.8664 169.667 44.7998 169.2C45.7464 168.72 46.8198 168.48 48.0198 168.48C49.2464 168.48 50.3064 168.74 51.1998 169.26C52.0931 169.78 52.7264 170.513 53.0998 171.46L50.1598 172.96C49.9064 172.453 49.5931 172.087 49.2198 171.86C48.8464 171.62 48.4398 171.5 47.9998 171.5C47.5598 171.5 47.1598 171.6 46.7998 171.8C46.4398 172 46.1531 172.293 45.9398 172.68C45.7398 173.053 45.6398 173.513 45.6398 174.06C45.6398 174.62 45.7398 175.093 45.9398 175.48C46.1531 175.867 46.4398 176.16 46.7998 176.36C47.1598 176.56 47.5598 176.66 47.9998 176.66C48.4398 176.66 48.8464 176.547 49.2198 176.32C49.5931 176.08 49.9064 175.707 50.1598 175.2L53.0998 176.7C52.7264 177.647 52.0931 178.38 51.1998 178.9C50.3064 179.42 49.2464 179.68 48.0198 179.68ZM61.1505 179.5V177.48L60.8905 176.98V173.26C60.8905 172.66 60.7039 172.2 60.3305 171.88C59.9705 171.547 59.3905 171.38 58.5905 171.38C58.0705 171.38 57.5439 171.467 57.0105 171.64C56.4772 171.8 56.0239 172.027 55.6505 172.32L54.3705 169.74C54.9839 169.34 55.7172 169.033 56.5705 168.82C57.4372 168.593 58.2972 168.48 59.1505 168.48C60.9105 168.48 62.2705 168.887 63.2305 169.7C64.2039 170.5 64.6905 171.76 64.6905 173.48V179.5H61.1505ZM57.9505 179.68C57.0839 179.68 56.3505 179.533 55.7505 179.24C55.1505 178.947 54.6905 178.547 54.3705 178.04C54.0639 177.533 53.9105 176.967 53.9105 176.34C53.9105 175.673 54.0772 175.1 54.4105 174.62C54.7572 174.127 55.2839 173.753 55.9905 173.5C56.6972 173.233 57.6105 173.1 58.7305 173.1H61.2905V175.08H59.2505C58.6372 175.08 58.2039 175.18 57.9505 175.38C57.7105 175.58 57.5905 175.847 57.5905 176.18C57.5905 176.513 57.7172 176.78 57.9705 176.98C58.2239 177.18 58.5705 177.28 59.0105 177.28C59.4239 177.28 59.7972 177.18 60.1305 176.98C60.4772 176.767 60.7305 176.447 60.8905 176.02L61.4105 177.42C61.2105 178.167 60.8172 178.733 60.2305 179.12C59.6572 179.493 58.8972 179.68 57.9505 179.68ZM71.9459 179.68C70.9592 179.68 70.0592 179.453 69.2459 179C68.4459 178.533 67.8059 177.887 67.3259 177.06C66.8459 176.22 66.6059 175.22 66.6059 174.06C66.6059 172.913 66.8459 171.927 67.3259 171.1C67.8059 170.26 68.4459 169.613 69.2459 169.16C70.0592 168.707 70.9592 168.48 71.9459 168.48C72.8792 168.48 73.6659 168.68 74.3059 169.08C74.9592 169.48 75.4525 170.093 75.7859 170.92C76.1192 171.747 76.2859 172.793 76.2859 174.06C76.2859 175.353 76.1259 176.413 75.8059 177.24C75.4859 178.067 75.0059 178.68 74.3659 179.08C73.7259 179.48 72.9192 179.68 71.9459 179.68ZM72.7459 176.66C73.1725 176.66 73.5525 176.56 73.8859 176.36C74.2325 176.16 74.5059 175.867 74.7059 175.48C74.9059 175.08 75.0059 174.607 75.0059 174.06C75.0059 173.513 74.9059 173.053 74.7059 172.68C74.5059 172.293 74.2325 172 73.8859 171.8C73.5525 171.6 73.1725 171.5 72.7459 171.5C72.3059 171.5 71.9125 171.6 71.5659 171.8C71.2325 172 70.9659 172.293 70.7659 172.68C70.5659 173.053 70.4659 173.513 70.4659 174.06C70.4659 174.607 70.5659 175.08 70.7659 175.48C70.9659 175.867 71.2325 176.16 71.5659 176.36C71.9125 176.56 72.3059 176.66 72.7459 176.66ZM75.1259 179.5V177.64L75.1459 174.06L74.9459 170.48V164.66H78.7459V179.5H75.1259ZM86.8707 179.68C85.5907 179.68 84.4707 179.44 83.5107 178.96C82.564 178.467 81.824 177.8 81.2907 176.96C80.7707 176.107 80.5107 175.14 80.5107 174.06C80.5107 172.98 80.764 172.02 81.2707 171.18C81.7907 170.327 82.504 169.667 83.4107 169.2C84.3174 168.72 85.3374 168.48 86.4707 168.48C87.5374 168.48 88.5107 168.7 89.3907 169.14C90.2707 169.567 90.9707 170.2 91.4907 171.04C92.0107 171.88 92.2707 172.9 92.2707 174.1C92.2707 174.233 92.264 174.387 92.2507 174.56C92.2374 174.733 92.224 174.893 92.2107 175.04H83.6307V173.04H90.1907L88.7507 173.6C88.764 173.107 88.6707 172.68 88.4707 172.32C88.284 171.96 88.0174 171.68 87.6707 171.48C87.3374 171.28 86.944 171.18 86.4907 171.18C86.0374 171.18 85.6374 171.28 85.2907 171.48C84.9574 171.68 84.6974 171.967 84.5107 172.34C84.324 172.7 84.2307 173.127 84.2307 173.62V174.2C84.2307 174.733 84.3374 175.193 84.5507 175.58C84.7774 175.967 85.0974 176.267 85.5107 176.48C85.924 176.68 86.4174 176.78 86.9907 176.78C87.524 176.78 87.9774 176.707 88.3507 176.56C88.7374 176.4 89.1174 176.16 89.4907 175.84L91.4907 177.92C90.9707 178.493 90.3307 178.933 89.5707 179.24C88.8107 179.533 87.9107 179.68 86.8707 179.68ZM108.143 168.48C108.983 168.48 109.729 168.653 110.383 169C111.049 169.333 111.569 169.853 111.943 170.56C112.329 171.267 112.523 172.18 112.523 173.3V179.5H108.723V173.92C108.723 173.147 108.576 172.587 108.283 172.24C107.989 171.88 107.589 171.7 107.083 171.7C106.723 171.7 106.396 171.787 106.103 171.96C105.809 172.133 105.583 172.4 105.423 172.76C105.263 173.107 105.183 173.56 105.183 174.12V179.5H101.383V173.92C101.383 173.147 101.236 172.587 100.943 172.24C100.663 171.88 100.263 171.7 99.7427 171.7C99.3694 171.7 99.0361 171.787 98.7427 171.96C98.4627 172.133 98.2361 172.4 98.0627 172.76C97.9027 173.107 97.8227 173.56 97.8227 174.12V179.5H94.0227V168.66H97.6427V171.68L96.9227 170.82C97.3227 170.047 97.8694 169.467 98.5627 169.08C99.2561 168.68 100.029 168.48 100.883 168.48C101.856 168.48 102.709 168.733 103.443 169.24C104.189 169.733 104.689 170.507 104.943 171.56L103.703 171.3C104.089 170.42 104.669 169.733 105.443 169.24C106.229 168.733 107.129 168.48 108.143 168.48ZM114.921 179.5V168.66H118.721V179.5H114.921ZM116.821 167.46C116.128 167.46 115.568 167.267 115.141 166.88C114.715 166.493 114.501 166.013 114.501 165.44C114.501 164.867 114.715 164.387 115.141 164C115.568 163.613 116.128 163.42 116.821 163.42C117.515 163.42 118.075 163.607 118.501 163.98C118.928 164.34 119.141 164.807 119.141 165.38C119.141 165.98 118.928 166.48 118.501 166.88C118.088 167.267 117.528 167.46 116.821 167.46ZM127.811 179.5V177.48L127.551 176.98V173.26C127.551 172.66 127.364 172.2 126.991 171.88C126.631 171.547 126.051 171.38 125.251 171.38C124.731 171.38 124.204 171.467 123.671 171.64C123.137 171.8 122.684 172.027 122.311 172.32L121.031 169.74C121.644 169.34 122.377 169.033 123.231 168.82C124.097 168.593 124.957 168.48 125.811 168.48C127.571 168.48 128.931 168.887 129.891 169.7C130.864 170.5 131.351 171.76 131.351 173.48V179.5H127.811ZM124.611 179.68C123.744 179.68 123.011 179.533 122.411 179.24C121.811 178.947 121.351 178.547 121.031 178.04C120.724 177.533 120.571 176.967 120.571 176.34C120.571 175.673 120.737 175.1 121.071 174.62C121.417 174.127 121.944 173.753 122.651 173.5C123.357 173.233 124.271 173.1 125.391 173.1H127.951V175.08H125.911C125.297 175.08 124.864 175.18 124.611 175.38C124.371 175.58 124.251 175.847 124.251 176.18C124.251 176.513 124.377 176.78 124.631 176.98C124.884 177.18 125.231 177.28 125.671 177.28C126.084 177.28 126.457 177.18 126.791 176.98C127.137 176.767 127.391 176.447 127.551 176.02L128.071 177.42C127.871 178.167 127.477 178.733 126.891 179.12C126.317 179.493 125.557 179.68 124.611 179.68ZM139.75 179.5V165.5H143.01L148.81 175.02H147.09L152.73 165.5H155.99L156.03 179.5H152.39L152.35 171.04H152.97L148.75 178.12H146.99L142.65 171.04H143.41V179.5H139.75ZM163.212 179.68C162.332 179.68 161.538 179.507 160.832 179.16C160.138 178.813 159.592 178.273 159.192 177.54C158.805 176.793 158.612 175.853 158.612 174.72V168.66H162.412V174.1C162.412 174.94 162.565 175.54 162.872 175.9C163.192 176.26 163.638 176.44 164.212 176.44C164.585 176.44 164.925 176.353 165.232 176.18C165.538 176.007 165.785 175.733 165.972 175.36C166.158 174.973 166.252 174.48 166.252 173.88V168.66H170.052V179.5H166.432V176.44L167.132 177.3C166.758 178.1 166.218 178.7 165.512 179.1C164.805 179.487 164.038 179.68 163.212 179.68ZM176.439 179.68C175.519 179.68 174.619 179.573 173.739 179.36C172.873 179.147 172.173 178.88 171.639 178.56L172.779 175.96C173.286 176.267 173.879 176.513 174.559 176.7C175.239 176.873 175.906 176.96 176.559 176.96C177.199 176.96 177.639 176.893 177.879 176.76C178.133 176.627 178.259 176.447 178.259 176.22C178.259 176.007 178.139 175.853 177.899 175.76C177.673 175.653 177.366 175.573 176.979 175.52C176.606 175.467 176.193 175.407 175.739 175.34C175.286 175.273 174.826 175.187 174.359 175.08C173.906 174.96 173.486 174.787 173.099 174.56C172.726 174.32 172.426 174 172.199 173.6C171.973 173.2 171.859 172.693 171.859 172.08C171.859 171.387 172.059 170.773 172.459 170.24C172.873 169.693 173.473 169.267 174.259 168.96C175.046 168.64 176.006 168.48 177.139 168.48C177.899 168.48 178.666 168.56 179.439 168.72C180.226 168.867 180.886 169.093 181.419 169.4L180.279 171.98C179.746 171.673 179.213 171.467 178.679 171.36C178.146 171.24 177.639 171.18 177.159 171.18C176.519 171.18 176.066 171.253 175.799 171.4C175.546 171.547 175.419 171.727 175.419 171.94C175.419 172.153 175.533 172.32 175.759 172.44C175.986 172.547 176.286 172.633 176.659 172.7C177.046 172.753 177.466 172.813 177.919 172.88C178.373 172.933 178.826 173.02 179.279 173.14C179.746 173.26 180.166 173.44 180.539 173.68C180.926 173.907 181.233 174.22 181.459 174.62C181.686 175.007 181.799 175.507 181.799 176.12C181.799 176.787 181.593 177.387 181.179 177.92C180.779 178.453 180.179 178.88 179.379 179.2C178.593 179.52 177.613 179.68 176.439 179.68ZM183.437 179.5V168.66H187.237V179.5H183.437ZM185.337 167.46C184.643 167.46 184.083 167.267 183.657 166.88C183.23 166.493 183.017 166.013 183.017 165.44C183.017 164.867 183.23 164.387 183.657 164C184.083 163.613 184.643 163.42 185.337 163.42C186.03 163.42 186.59 163.607 187.017 163.98C187.443 164.34 187.657 164.807 187.657 165.38C187.657 165.98 187.443 166.48 187.017 166.88C186.603 167.267 186.043 167.46 185.337 167.46ZM195.246 179.68C194.046 179.68 192.973 179.44 192.026 178.96C191.093 178.48 190.36 177.82 189.826 176.98C189.293 176.127 189.026 175.153 189.026 174.06C189.026 172.967 189.293 172 189.826 171.16C190.36 170.32 191.093 169.667 192.026 169.2C192.973 168.72 194.046 168.48 195.246 168.48C196.473 168.48 197.533 168.74 198.426 169.26C199.32 169.78 199.953 170.513 200.326 171.46L197.386 172.96C197.133 172.453 196.82 172.087 196.446 171.86C196.073 171.62 195.666 171.5 195.226 171.5C194.786 171.5 194.386 171.6 194.026 171.8C193.666 172 193.38 172.293 193.166 172.68C192.966 173.053 192.866 173.513 192.866 174.06C192.866 174.62 192.966 175.093 193.166 175.48C193.38 175.867 193.666 176.16 194.026 176.36C194.386 176.56 194.786 176.66 195.226 176.66C195.666 176.66 196.073 176.547 196.446 176.32C196.82 176.08 197.133 175.707 197.386 175.2L200.326 176.7C199.953 177.647 199.32 178.38 198.426 178.9C197.533 179.42 196.473 179.68 195.246 179.68ZM208.377 179.5V177.48L208.117 176.98V173.26C208.117 172.66 207.93 172.2 207.557 171.88C207.197 171.547 206.617 171.38 205.817 171.38C205.297 171.38 204.77 171.467 204.237 171.64C203.704 171.8 203.25 172.027 202.877 172.32L201.597 169.74C202.21 169.34 202.944 169.033 203.797 168.82C204.664 168.593 205.524 168.48 206.377 168.48C208.137 168.48 209.497 168.887 210.457 169.7C211.43 170.5 211.917 171.76 211.917 173.48V179.5H208.377ZM205.177 179.68C204.31 179.68 203.577 179.533 202.977 179.24C202.377 178.947 201.917 178.547 201.597 178.04C201.29 177.533 201.137 176.967 201.137 176.34C201.137 175.673 201.304 175.1 201.637 174.62C201.984 174.127 202.51 173.753 203.217 173.5C203.924 173.233 204.837 173.1 205.957 173.1H208.517V175.08H206.477C205.864 175.08 205.43 175.18 205.177 175.38C204.937 175.58 204.817 175.847 204.817 176.18C204.817 176.513 204.944 176.78 205.197 176.98C205.45 177.18 205.797 177.28 206.237 177.28C206.65 177.28 207.024 177.18 207.357 176.98C207.704 176.767 207.957 176.447 208.117 176.02L208.637 177.42C208.437 178.167 208.044 178.733 207.457 179.12C206.884 179.493 206.124 179.68 205.177 179.68ZM214.316 179.5V164.66H218.116V179.5H214.316Z" fill="white"/>
</svg>
